<?xml version="1.0" standalone="no"?>
<!DOCTYPE svg PUBLIC "-//W3C//DTD SVG 20010904//EN"
 "http://www.w3.org/TR/2001/REC-SVG-20010904/DTD/svg10.dtd">
<svg version="1.0" xmlns="http://www.w3.org/2000/svg"
 width="647.000000pt" height="555.000000pt" viewBox="0 0 647.000000 555.000000"
 preserveAspectRatio="xMidYMid meet">

<g transform="translate(0.000000,555.000000) scale(0.100000,-0.100000)"
fill="#fff" stroke="none">
<path d="M1705 5500 c-247 -22 -333 -41 -515 -114 -232 -93 -410 -200 -580
-348 -128 -111 -318 -360 -402 -526 -66 -132 -89 -198 -118 -345 -11 -56 -23
-110 -26 -119 -5 -17 15 -18 325 -18 l330 0 6 33 c3 17 12 79 20 137 24 179
102 402 203 582 54 96 281 333 376 393 108 67 301 128 511 161 188 29 407 9
587 -55 210 -73 273 -108 440 -239 206 -163 254 -259 322 -647 21 -119 33
-173 40 -175 16 -6 154 -10 172 -6 l24 6 -2 628 -3 627 -85 0 -85 0 -6 -70
c-6 -71 -40 -192 -65 -232 -8 -13 -24 -23 -36 -23 -25 0 -108 45 -193 105
-103 73 -247 138 -445 200 -193 61 -444 75 -795 45z"/>
<path d="M4535 3944 c-66 -34 -103 -94 -112 -178 -18 -173 141 -298 268 -210
55 37 92 115 91 189 -1 151 -134 258 -247 199z m132 -44 c75 -45 100 -183 49
-260 -34 -52 -71 -75 -117 -74 -108 3 -175 155 -118 268 39 80 118 108 186 66z"/>
<path d="M1359 3905 c-67 -35 -99 -88 -99 -167 1 -113 45 -175 140 -198 71
-17 133 -6 175 32 34 29 35 32 35 104 l0 74 -76 0 c-56 0 -75 -3 -72 -12 3 -8
26 -14 56 -16 l52 -3 0 -54 c0 -48 -3 -57 -27 -72 -33 -22 -125 -23 -168 -2
-47 23 -75 73 -75 137 0 68 27 115 81 142 53 27 103 25 157 -6 31 -19 47 -23
55 -15 7 7 5 16 -7 30 -50 55 -150 66 -227 26z"/>
<path d="M1815 3920 c-8 -13 3 -30 20 -30 12 0 15 -30 17 -162 3 -137 5 -163
18 -163 11 0 16 15 18 63 l3 62 53 0 c51 0 53 -1 114 -65 35 -36 67 -65 72
-65 28 0 16 29 -35 80 l-57 58 37 34 c42 38 49 82 22 135 -28 53 -55 63 -171
63 -59 0 -108 -4 -111 -10z m234 -56 c12 -15 21 -41 21 -58 0 -46 -39 -72
-118 -78 l-62 -4 0 83 0 83 69 0 c63 0 71 -2 90 -26z"/>
<path d="M3580 3915 c-8 -10 -2 -17 26 -31 35 -18 40 -26 80 -139 69 -199 77
-213 101 -182 6 6 34 74 63 150 32 82 57 133 61 125 4 -7 28 -69 54 -138 49
-129 68 -161 84 -145 18 19 161 350 157 362 -12 31 -39 -8 -97 -143 -35 -79
-65 -144 -68 -144 -4 0 -31 64 -61 143 -44 111 -60 142 -74 142 -14 0 -31 -31
-74 -142 -31 -79 -59 -139 -63 -135 -3 4 -25 61 -49 127 -24 66 -48 126 -54
133 -20 21 -73 32 -86 17z"/>
<path d="M5022 3914 c-14 -10 -13 -13 7 -24 22 -11 23 -17 21 -103 -5 -168 -1
-239 13 -235 7 3 14 31 17 74 l5 69 36 3 c34 3 39 -1 95 -70 64 -79 73 -88 92
-88 21 0 14 14 -43 80 -30 36 -55 67 -55 70 0 3 13 12 29 22 55 31 66 142 20
184 -17 15 -42 20 -122 24 -66 3 -105 1 -115 -6z m212 -50 c22 -21 20 -77 -3
-105 -15 -19 -29 -23 -85 -25 l-66 -3 0 74 0 75 69 0 c50 0 74 -4 85 -16z"/>
<path d="M5699 3838 l-104 -91 -3 76 c-2 65 -6 78 -23 88 -22 11 -49 6 -49
-10 0 -5 9 -12 20 -16 18 -6 20 -17 22 -167 2 -118 6 -162 16 -166 9 -3 12 18
12 82 0 73 2 86 16 86 9 0 63 -40 120 -90 56 -49 107 -90 113 -90 30 0 2 35
-89 111 -54 46 -98 89 -97 95 1 5 39 43 85 83 45 39 82 76 82 81 0 26 -26 10
-121 -72z"/>
<path d="M2514 3912 c-12 -8 -174 -343 -174 -360 0 -30 28 -7 53 43 l27 55
110 0 110 0 25 -50 c14 -27 32 -50 40 -50 27 0 27 2 -140 303 -20 37 -38 67
-38 67 -1 0 -7 -4 -13 -8z m61 -150 l45 -82 -91 0 c-69 0 -90 3 -86 13 27 69
72 157 79 155 5 -2 29 -40 53 -86z"/>
<path d="M2995 3898 c-5 -18 -55 -313 -55 -327 0 -18 28 -13 34 7 3 9 12 60
21 112 9 52 19 102 22 110 3 9 31 -40 69 -117 36 -77 69 -133 77 -133 8 0 42
61 82 146 79 167 68 170 105 -33 16 -88 26 -123 36 -123 9 0 14 11 14 28 0 24
-40 257 -55 320 -12 50 -36 21 -109 -130 l-74 -153 -32 69 c-17 38 -49 107
-70 153 -36 78 -56 99 -65 71z"/>
<path d="M3654 3443 c-439 -3 -554 -6 -563 -16 -11 -14 -19 -212 -9 -222 3 -4
75 -15 160 -26 84 -11 163 -24 176 -29 13 -6 31 -29 42 -53 10 -23 138 -313
284 -645 146 -331 266 -609 266 -617 0 -14 -445 -962 -459 -977 -3 -4 -96 212
-205 480 -110 268 -204 493 -209 500 -8 10 -61 12 -239 10 -125 -2 -228 0
-228 3 0 4 21 14 48 24 50 19 213 110 301 169 102 69 132 47 170 -126 13 -60
29 -108 39 -115 10 -8 48 -13 99 -13 l83 0 0 635 0 635 -257 0 c-142 0 -282
-3 -310 -6 l-53 -7 0 -113 c0 -63 -3 -114 -7 -114 -5 0 -29 46 -55 101 l-48
101 32 46 c53 80 68 91 152 117 134 42 127 34 124 139 l-3 91 -595 0 -595 0
-3 -90 c-5 -138 -1 -148 66 -186 31 -17 97 -71 145 -118 77 -75 96 -101 154
-211 102 -194 149 -282 169 -319 l19 -33 218 5 217 6 0 -77 c-1 -42 -5 -108
-10 -146 -8 -66 -11 -71 -66 -127 -32 -33 -68 -62 -79 -65 -11 -4 -49 -20 -84
-36 -35 -16 -127 -45 -205 -65 -134 -34 -149 -36 -291 -35 -278 3 -418 26
-615 99 -142 53 -242 118 -352 231 -132 135 -246 314 -282 442 -15 51 -54 278
-61 345 l-2 30 -314 3 c-173 1 -319 0 -325 -2 -18 -7 3 -128 42 -234 56 -156
171 -364 265 -478 105 -129 162 -185 259 -258 256 -193 592 -325 928 -365 120
-14 187 -16 363 -10 249 8 389 27 546 74 109 32 133 34 113 10 -9 -10 203
-557 450 -1165 33 -80 96 -237 142 -350 l83 -205 115 -3 116 -3 212 443 c351
734 440 919 445 924 5 5 40 -84 379 -946 l164 -415 124 0 125 0 43 105 c70
170 778 1902 974 2385 147 362 155 378 212 455 52 70 78 91 137 112 87 30 92
40 87 165 -2 59 -7 114 -11 121 -6 9 -109 12 -457 12 -246 0 -455 -3 -464 -6
-13 -5 -16 -24 -16 -104 0 -111 0 -111 85 -140 136 -47 201 -112 196 -198 -1
-34 -45 -155 -158 -432 -254 -628 -367 -907 -505 -1250 -72 -179 -133 -328
-137 -332 -4 -4 -104 236 -223 533 l-217 541 96 206 c314 677 349 744 451 848
56 57 64 62 148 83 49 13 100 26 114 30 25 7 25 10 28 119 l3 112 -503 0
c-277 0 -508 -4 -514 -8 -7 -4 -13 -49 -15 -111 l-4 -105 95 -12 c116 -15 167
-35 181 -72 6 -15 9 -60 6 -103 -5 -71 -14 -95 -130 -360 l-126 -284 -17 40
c-9 22 -70 164 -136 315 -163 374 -164 391 -23 448 l70 29 3 111 c2 103 1 112
-15 110 -10 -2 -266 -4 -569 -5z m263 -49 c-3 -3 -12 -4 -19 -1 -8 3 -5 6 6 6
11 1 17 -2 13 -5z m276 -9 c-3 -9 -8 -14 -10 -11 -3 3 -2 9 2 15 9 16 15 13 8
-4z m232 -3 c-3 -3 -11 0 -18 7 -9 10 -8 11 6 5 10 -3 15 -9 12 -12z m-997 1
c-27 -2 -69 -2 -95 0 -27 2 -5 3 47 3 52 0 74 -1 48 -3z m125 0 c-7 -2 -21 -2
-30 0 -10 3 -4 5 12 5 17 0 24 -2 18 -5z m280 0 c-7 -2 -21 -2 -30 0 -10 3 -4
5 12 5 17 0 24 -2 18 -5z m1694 -15 c-3 -8 -6 -5 -6 6 -1 11 2 17 5 13 3 -3 4
-12 1 -19z m-2374 5 c-7 -2 -19 -2 -25 0 -7 3 -2 5 12 5 14 0 19 -2 13 -5z
m474 1 c-3 -3 -12 -4 -19 -1 -8 3 -5 6 6 6 11 1 17 -2 13 -5z m388 -12 c-3 -3
-11 0 -18 7 -9 10 -8 11 6 5 10 -3 15 -9 12 -12z m-752 1 c-13 -2 -35 -2 -50
0 -16 2 -5 4 22 4 28 0 40 -2 28 -4z m900 -8 c1 -6 -10 -11 -26 -11 l-27 -1
27 4 c21 4 23 7 12 15 -10 7 -10 9 -1 6 8 -2 14 -8 15 -13z m267 5 c0 -5 -2
-10 -4 -10 -3 0 -8 5 -11 10 -3 6 -1 10 4 10 6 0 11 -4 11 -10z m47 4 c-3 -3
-12 -4 -19 -1 -8 3 -5 6 6 6 11 1 17 -2 13 -5z m640 0 c-3 -3 -12 -4 -19 -1
-8 3 -5 6 6 6 11 1 17 -2 13 -5z m-1967 -25 c0 -5 -4 -9 -10 -9 -5 0 -10 7
-10 16 0 8 5 12 10 9 6 -3 10 -10 10 -16z m-245 -8 c-3 -6 -11 -11 -16 -11 -5
0 -4 6 3 14 14 16 24 13 13 -3z m2208 2 c-7 -2 -19 -2 -25 0 -7 3 -2 5 12 5
14 0 19 -2 13 -5z m-1916 -9 c-3 -3 -12 -4 -19 -1 -8 3 -5 6 6 6 11 1 17 -2
13 -5z m3173 -14 c0 -11 -6 -20 -14 -20 -8 0 -17 -6 -19 -12 -3 -8 -6 -6 -6 5
-1 9 6 17 14 17 8 0 15 7 15 15 0 8 2 15 5 15 3 0 5 -9 5 -20z m-3433 -12 c-3
-8 -6 -5 -6 6 -1 11 2 17 5 13 3 -3 4 -12 1 -19z m422 18 c-9 -8 -88 -13 -83
-5 3 5 24 9 46 9 23 0 39 -2 37 -4z m2196 -6 c-3 -5 -1 -10 6 -10 7 0 10 -2 7
-5 -8 -9 -38 6 -32 16 3 5 10 9 15 9 6 0 7 -4 4 -10z m-1060 -11 c-5 -6 -55 0
-55 7 0 3 13 3 29 2 16 -1 28 -5 26 -9z m1255 1 c-8 -5 -19 -10 -25 -10 -5 0
-3 5 5 10 8 5 20 10 25 10 6 0 3 -5 -5 -10z m-1360 -6 c0 -8 -19 -13 -24 -6
-3 5 1 9 9 9 8 0 15 -2 15 -3z m165 -4 c4 -6 16 -8 28 -5 12 2 16 2 9 -1 -10
-5 -10 -9 -1 -20 8 -10 8 -14 0 -14 -6 0 -11 4 -11 9 0 5 -15 16 -32 25 -19 9
-26 16 -16 16 9 0 20 -5 23 -10z m-1370 -10 c-4 -6 -1 -18 7 -27 12 -15 11
-15 -9 -3 -20 13 -21 40 -1 40 5 0 6 -5 3 -10z m-37 -21 c9 -12 9 -16 -1 -16
-7 0 -14 9 -14 20 -1 11 -1 18 0 16 2 -2 8 -11 15 -20z m-314 -1 c-5 -8 0 -9
14 -6 29 8 28 -6 -2 -20 -21 -9 -23 -8 -21 11 3 26 3 27 11 27 3 0 2 -5 -2
-12z m1339 -1 c-3 -4 -8 -6 -11 -3 -3 3 -11 1 -19 -6 -11 -8 -12 -7 -7 5 3 9
14 15 24 14 10 -1 16 -5 13 -10z m1417 3 c8 -5 11 -10 5 -10 -5 0 -17 5 -25
10 -8 5 -10 10 -5 10 6 0 17 -5 25 -10z m-2170 -16 c0 -2 -15 -4 -32 -3 -27 0
-29 2 -13 8 18 8 45 4 45 -5z m595 -4 c0 -5 9 -16 20 -23 16 -13 17 -17 6 -31
-7 -9 -19 -16 -25 -16 -6 0 -5 4 3 9 9 6 10 11 2 15 -6 4 -14 0 -18 -9 -3 -10
0 -21 7 -25 8 -5 9 -10 1 -14 -13 -9 -27 44 -14 53 5 3 9 18 8 34 -1 15 1 25
4 21 3 -3 6 -10 6 -14z m70 11 c-3 -2 1 -11 8 -20 10 -14 10 -14 -5 -3 -11 9
-18 10 -23 2 -5 -8 -11 -8 -21 1 -19 15 -11 25 20 25 14 0 23 -2 21 -5z m480
-9 c-3 -3 -11 0 -18 7 -9 10 -8 11 6 5 10 -3 15 -9 12 -12z m615 -8 c0 -2 -9
0 -20 6 -11 6 -20 13 -20 16 0 2 9 0 20 -6 11 -6 20 -13 20 -16z m1187 13 c3
-4 -8 -7 -25 -7 -18 0 -32 4 -32 8 0 9 47 8 57 -1z m-3029 -4 c-10 -2 -28 -2
-40 0 -13 2 -5 4 17 4 22 1 32 -1 23 -4z m1807 -13 c3 -5 1 -10 -4 -10 -6 0
-11 5 -11 10 0 6 2 10 4 10 3 0 8 -4 11 -10z m1145 0 c0 -5 -5 -10 -11 -10 -5
0 -7 5 -4 10 3 6 8 10 11 10 2 0 4 -4 4 -10z m-4422 -13 c8 -9 8 -17 0 -27 -8
-12 -9 -12 -4 2 3 10 -2 22 -12 27 -9 6 -12 11 -6 11 6 0 16 -6 22 -13z m52
-13 c0 -3 -4 -2 -10 1 -5 3 -10 2 -10 -3 0 -6 7 -13 16 -16 8 -3 13 -10 9 -15
-3 -6 -12 -8 -20 -5 -8 4 -12 10 -9 15 3 5 1 9 -3 9 -5 0 -9 9 -10 20 -2 17 1
18 18 10 10 -6 19 -13 19 -16z m1490 22 c0 -9 -30 -14 -35 -6 -4 6 3 10 14 10
12 0 21 -2 21 -4z m1230 -17 c0 -6 -4 -7 -10 -4 -5 3 -10 11 -10 16 0 6 5 7
10 4 6 -3 10 -11 10 -16z m438 -4 c-3 -3 -9 2 -12 12 -6 14 -5 15 5 6 7 -7 10
-15 7 -18z m1302 16 c0 -4 -11 -6 -24 -4 -13 3 -34 -1 -47 -8 -22 -11 -23 -11
-10 4 14 17 81 24 81 8z m-4437 -16 c-3 -9 -8 -14 -10 -11 -3 3 -2 9 2 15 9
16 15 13 8 -4z m1521 0 c-4 -8 -1 -15 5 -15 6 0 11 5 11 11 0 5 4 7 10 4 6 -4
5 -11 -3 -20 -10 -11 -15 -11 -28 1 -8 8 -22 14 -30 15 -8 1 -3 5 11 9 14 4
26 8 27 9 1 1 0 -6 -3 -14z m2296 -17 c0 -5 -7 -3 -15 6 -8 8 -15 18 -15 22 0
3 7 1 15 -6 8 -7 15 -17 15 -22z m-3112 -3 c-3 -3 -9 2 -12 12 -6 14 -5 15 5
6 7 -7 10 -15 7 -18z m2407 16 c3 -5 2 -12 -3 -15 -5 -3 -9 1 -9 9 0 17 3 19
12 6z m665 0 c0 -6 -4 -12 -8 -15 -5 -3 -9 1 -9 9 0 8 4 15 9 15 4 0 8 -4 8
-9z m-3760 -9 c0 -5 -7 -17 -15 -28 -14 -18 -14 -17 -4 9 12 27 19 34 19 19z
m2017 -44 c-2 -13 -4 -5 -4 17 -1 22 1 32 4 23 2 -10 2 -28 0 -40z m2213 12
c5 0 11 5 13 10 3 6 4 5 3 -2 -2 -7 -11 -12 -20 -12 -18 2 -22 -11 -6 -19 6
-3 5 -4 -2 -3 -13 3 -14 6 -8 49 l3 22 4 -22 c2 -13 8 -23 13 -23z m75 22 c-3
-3 -11 0 -18 7 -9 10 -8 11 6 5 10 -3 15 -9 12 -12z m-4282 -11 c-3 -11 -12
-22 -20 -25 -14 -6 -11 5 10 32 13 17 16 15 10 -7z m1529 -8 c-3 -16 -7 -22
-10 -15 -2 6 -9 9 -15 5 -7 -3 -3 3 7 15 24 28 24 28 18 -5z m-1492 -3 c0 -5
-5 -10 -11 -10 -5 0 -7 -5 -4 -10 5 -8 11 -7 20 0 16 13 39 4 29 -11 -3 -6 2
-17 12 -24 11 -8 14 -15 7 -15 -6 0 -14 4 -17 9 -3 5 -20 7 -38 5 -24 -3 -29
-1 -18 6 12 8 12 12 2 18 -7 5 -10 16 -6 25 7 18 24 23 24 7z m1937 -27 c-3
-10 -5 -4 -5 12 0 17 2 24 5 18 2 -7 2 -21 0 -30z m1043 27 c5 8 9 6 14 -6 4
-10 4 -15 0 -11 -4 4 -12 3 -18 -3 -8 -6 -12 -2 -13 13 0 12 1 16 4 8 4 -10 7
-10 13 -1z m810 -20 c-8 -5 -19 -10 -25 -10 -5 0 -3 5 5 10 8 5 20 10 25 10 6
0 3 -5 -5 -10z m-866 -9 c-7 -8 -54 -9 -49 -1 2 3 15 6 29 6 14 0 23 -2 20 -5z
m-1394 -22 c0 -5 -4 -9 -10 -9 -5 0 -10 7 -10 16 0 8 5 12 10 9 6 -3 10 -10
10 -16z m2228 -4 c-3 -3 -9 2 -12 12 -6 14 -5 15 5 6 7 -7 10 -15 7 -18z m358
2 c11 -10 12 -47 2 -41 -4 3 -8 1 -8 -4 0 -7 -28 -9 -48 -3 -1 1 2 9 7 19 7
13 7 22 0 29 -7 7 -2 10 15 9 14 -1 28 -5 32 -9z m49 3 c3 -6 -1 -7 -9 -4 -18
7 -21 14 -7 14 6 0 13 -4 16 -10z m-2212 -20 c3 -11 1 -20 -4 -20 -5 0 -9 9
-9 20 0 11 2 20 4 20 2 0 6 -9 9 -20z m947 -9 c1 10 4 9 11 -4 6 -10 8 -21 5
-24 -3 -4 -6 -1 -6 7 0 10 -3 10 -16 0 -8 -8 -14 -9 -13 -4 4 22 -2 35 -13 28
-7 -5 -8 -3 -3 6 6 10 11 9 22 -5 9 -14 13 -15 13 -4z m-2845 -3 c5 4 5 1 1
-6 -6 -10 -11 -10 -22 -1 -8 6 -14 14 -14 16 0 3 6 0 13 -6 8 -6 18 -7 22 -3z
m1518 -8 c3 -11 1 -18 -4 -14 -5 3 -9 12 -9 20 0 20 7 17 13 -6z m-25 -11 c10
-13 10 -18 0 -22 -8 -3 -14 5 -14 20 -1 13 -1 23 0 21 1 -2 7 -10 14 -19z
m2269 -11 c-3 -8 -6 -5 -6 6 -1 11 2 17 5 13 3 -3 4 -12 1 -19z m-3737 3 c0
-5 -6 -14 -14 -20 -10 -9 -17 -7 -27 6 -13 16 -12 17 4 4 15 -12 21 -9 18 12
0 4 4 7 9 7 6 0 10 -4 10 -9z m3770 -16 c0 -8 -4 -15 -10 -15 -5 0 -7 7 -4 15
4 8 8 15 10 15 2 0 4 -7 4 -15z m-1003 -32 c-3 -10 -5 -4 -5 12 0 17 2 24 5
18 2 -7 2 -21 0 -30z m-2734 12 c-3 -9 -8 -14 -10 -11 -3 3 -2 9 2 15 9 16 15
13 8 -4z m1447 5 c0 -5 -5 -10 -11 -10 -5 0 -7 5 -4 10 3 6 8 10 11 10 2 0 4
-4 4 -10z m1257 -32 c-3 -7 -5 -2 -5 12 0 14 2 19 5 13 2 -7 2 -19 0 -25z
m-2674 7 c4 -8 2 -17 -3 -20 -6 -4 -10 3 -10 14 0 25 6 27 13 6z m1442 -4 c3
-5 1 -12 -5 -16 -5 -3 -10 1 -10 9 0 18 6 21 15 7z m1285 -10 c-5 -11 -15 -23
-22 -27 -7 -5 -8 -2 -3 7 21 37 44 55 25 20z m957 -28 c-3 -10 -5 -4 -5 12 0
17 2 24 5 18 2 -7 2 -21 0 -30z m200 5 c-3 -7 -5 -2 -5 12 0 14 2 19 5 13 2
-7 2 -19 0 -25z m-3907 12 c0 -5 -2 -10 -4 -10 -3 0 -8 5 -11 10 -3 6 -1 10 4
10 6 0 11 -4 11 -10z m1450 -25 c0 -5 -5 -3 -10 5 -5 8 -10 20 -10 25 0 6 5 3
10 -5 5 -8 10 -19 10 -25z m460 -19 c-6 -6 -6 -14 2 -23 8 -10 8 -17 -1 -26
-10 -9 -11 -8 -6 6 4 9 3 17 -3 17 -5 0 -13 7 -16 16 -3 8 -2 12 4 9 6 -3 10
1 10 10 0 10 -6 15 -13 12 -7 -3 -13 3 -14 13 -2 17 0 17 23 -3 16 -14 21 -24
14 -31z m2022 27 c-3 -16 -7 -22 -10 -15 -4 13 4 42 11 42 2 0 2 -12 -1 -27z
m-3881 -10 c-12 -20 -14 -14 -5 12 4 9 9 14 11 11 3 -2 0 -13 -6 -23z m1451
-23 c-6 -17 -9 -38 -6 -48 5 -15 4 -15 -5 -1 -5 8 -8 22 -6 30 8 35 18 59 22
55 3 -3 0 -19 -5 -36z m1187 -34 c-23 -21 -23 -21 -6 0 9 11 18 34 18 50 l2
29 4 -29 c3 -21 -2 -35 -18 -50z m1002 52 c6 -13 8 -20 4 -16 -5 4 -15 2 -24
-5 -14 -10 -14 -10 -3 5 8 9 11 22 7 28 -3 5 -4 10 -1 10 3 0 11 -10 17 -22z
m46 -20 c-3 -7 -5 -2 -5 12 0 14 2 19 5 13 2 -7 2 -19 0 -25z m-2269 -13 c-3
-3 -9 2 -12 12 -6 14 -5 15 5 6 7 -7 10 -15 7 -18z m-1414 -25 c10 -13 9 -13
-6 -1 -10 7 -18 21 -17 30 0 13 1 14 6 1 3 -8 11 -22 17 -30z m2434 5 c-3 -3
-9 2 -12 12 -6 14 -5 15 5 6 7 -7 10 -15 7 -18z m1383 2 c-10 -9 -11 -8 -5 6
3 10 9 15 12 12 3 -3 0 -11 -7 -18z m15 -32 c-9 -7 -12 -16 -8 -20 4 -5 1 -5
-6 -1 -10 6 -8 14 5 37 14 24 19 27 22 13 2 -10 -4 -23 -13 -29z m-3786 10 c0
-7 6 -16 13 -18 8 -4 9 -8 2 -14 -6 -4 -16 -19 -22 -33 -10 -20 -11 -21 -10
-5 2 11 6 25 10 32 4 6 3 23 -3 38 -7 17 -7 24 0 20 6 -3 10 -12 10 -20z
m1831 -3 c-6 -11 -7 -23 -3 -27 4 -5 1 -5 -5 -1 -8 4 -13 1 -13 -8 0 -8 -5
-18 -11 -22 -8 -4 -9 1 -4 16 5 15 4 20 -4 16 -6 -4 -11 -3 -11 3 0 15 20 24
20 9 0 -7 8 -1 17 14 19 30 30 31 14 0z m1992 13 c-3 -9 -8 -14 -10 -11 -3 3
-2 9 2 15 9 16 15 13 8 -4z m-277 -28 c14 17 14 17 5 -4 -6 -12 -11 -38 -11
-59 0 -54 -6 -38 -12 31 -3 33 -4 50 -1 37 4 -23 5 -23 19 -5z m-1699 -9 c-3
-8 -6 -5 -6 6 -1 11 2 17 5 13 3 -3 4 -12 1 -19z m520 -3 c0 -8 -4 -12 -9 -9
-5 3 -6 10 -3 15 9 13 12 11 12 -6z m1413 -65 c-27 -66 -54 -114 -36 -66 3 10
1 25 -5 32 -7 9 -8 14 -1 14 6 0 13 -6 15 -12 3 -8 6 -6 6 5 1 9 0 18 -1 20
-3 4 45 87 49 83 2 -1 -10 -36 -27 -76z m-3807 55 c-3 -9 -8 -14 -10 -11 -3 3
-2 9 2 15 9 16 15 13 8 -4z m1466 -15 c10 0 8 -66 -2 -77 -5 -4 -5 0 -1 10 3
9 2 17 -4 17 -5 0 -8 12 -5 28 3 23 2 24 -6 7 -11 -24 -13 -10 -4 25 6 19 8
21 11 8 2 -10 7 -18 11 -18z m-1425 -24 c-3 -15 -8 -25 -11 -23 -2 3 -1 17 3
31 3 15 8 25 11 23 2 -3 1 -17 -3 -31z m2386 -1 c0 -5 -5 -3 -10 5 -5 8 -10
20 -10 25 0 6 5 3 10 -5 5 -8 10 -19 10 -25z m-532 -4 c-7 -9 -13 -18 -15 -20
-1 -2 -1 5 0 16 0 11 7 20 14 20 10 0 10 -4 1 -16z m478 -4 c0 -13 -6 -24 -13
-24 -8 0 -8 7 0 24 13 29 15 29 13 0z m1389 13 c3 -5 1 -10 -4 -10 -6 0 -11 5
-11 10 0 6 2 10 4 10 3 0 8 -4 11 -10z m-1852 -31 c-12 -12 -6 -49 8 -49 5 0
9 -8 10 -17 0 -17 1 -17 7 -1 6 15 9 14 19 -7 6 -14 7 -25 2 -25 -5 0 -9 4 -9
10 0 5 -6 7 -13 5 -17 -7 -48 66 -35 83 6 6 13 12 16 12 3 0 1 -5 -5 -11z
m1637 -7 c0 -10 -6 -27 -14 -38 -13 -17 -13 -15 -3 19 13 41 17 46 17 19z
m-3451 -29 c11 -24 11 -25 -5 -12 -15 12 -16 12 -10 -8 4 -13 2 -24 -5 -29 -8
-4 -9 -3 -5 4 4 6 2 21 -5 33 -9 17 -8 20 2 14 9 -6 11 -3 6 8 -11 28 9 19 22
-10z m1835 11 c3 -8 2 -12 -4 -9 -6 3 -10 10 -10 16 0 14 7 11 14 -7z m421
-37 c-2 -25 -7 -32 -24 -33 -20 -1 -21 0 -5 17 9 10 13 23 8 30 -4 8 -3 10 4
5 16 -10 15 6 0 24 -11 12 -10 12 3 2 11 -8 16 -24 14 -45z m195 45 c0 -13
-12 -22 -22 -16 -10 6 -1 24 13 24 5 0 9 -4 9 -8z m1200 1 c0 -1 -8 -7 -18
-12 -13 -7 -19 -6 -19 2 0 7 9 13 19 13 10 0 18 -1 18 -3z m-2249 -60 c-12
-20 -14 -14 -5 12 4 9 9 14 11 11 3 -2 0 -13 -6 -23z m884 17 c3 -5 1 -10 -4
-10 -6 0 -11 5 -11 10 0 6 2 10 4 10 3 0 8 -4 11 -10z m1133 -24 c14 5 14 4
-1 -6 -12 -8 -16 -19 -12 -33 5 -20 5 -20 -8 2 -8 13 -12 33 -9 45 5 17 7 18
10 4 2 -11 10 -15 20 -12z m242 10 c0 -3 -4 -8 -10 -11 -5 -3 -10 -1 -10 4 0
6 5 11 10 11 6 0 10 -2 10 -4z m-1283 -48 c-3 -7 -5 -2 -5 12 0 14 2 19 5 13
2 -7 2 -19 0 -25z m26 12 c-3 -12 -8 -19 -11 -16 -5 6 5 36 12 36 2 0 2 -9 -1
-20z m-574 -20 c11 -24 11 -24 -3 -6 -11 13 -16 15 -16 6 0 -7 -2 -11 -5 -8
-3 3 -3 13 1 22 7 19 7 19 23 -14z m592 7 c-10 -9 -11 -8 -5 6 3 10 9 15 12
12 3 -3 0 -11 -7 -18z m-2387 -3 c5 -14 4 -15 -9 -4 -17 14 -19 20 -6 20 5 0
12 -7 15 -16z m3616 -10 c0 -8 -4 -12 -10 -9 -5 3 -10 13 -10 21 0 8 5 12 10
9 6 -3 10 -13 10 -21z m-1765 -4 c-3 -5 -1 -12 5 -15 6 -4 8 -16 4 -27 -4 -14
-2 -18 5 -14 6 4 11 3 11 -3 0 -19 -16 -19 -28 0 -7 11 -8 19 -2 19 5 0 10 5
10 11 0 5 -4 8 -9 5 -11 -7 -36 22 -27 31 3 3 6 1 6 -6 0 -7 5 -9 10 -6 6 4 7
11 4 17 -4 7 -2 8 5 4 6 -4 9 -11 6 -16z m360 10 c3 -5 1 -10 -4 -10 -6 0 -11
5 -11 10 0 6 2 10 4 10 3 0 8 -4 11 -10z m-808 -25 c-15 -16 -19 -13 -11 9 3
9 10 13 15 10 5 -3 3 -11 -4 -19z m1956 -23 c-8 -8 -17 -11 -21 -8 -3 4 -1 11
6 15 7 4 10 16 6 27 -7 18 -6 18 8 0 14 -17 14 -22 1 -34z m238 13 c5 3 6 -1
3 -9 -3 -9 -10 -14 -14 -11 -5 3 -10 2 -13 -2 -2 -5 -2 -2 0 5 1 8 4 21 4 30
1 15 2 15 6 -1 2 -9 9 -15 14 -12z m-1234 -7 c-3 -8 -6 -5 -6 6 -1 11 2 17 5
13 3 -3 4 -12 1 -19z m-2342 -4 c19 7 19 2 2 -13 -11 -8 -18 -6 -33 11 -15 18
-16 20 -2 9 10 -7 25 -11 33 -7z m1418 -16 c-4 -19 -3 -20 6 -8 13 18 15 1 2
-19 -7 -11 -10 -9 -16 8 -3 11 -3 25 0 31 10 16 13 11 8 -12z m719 -15 c-3
-16 -7 -22 -10 -15 -4 13 4 42 11 42 2 0 2 -12 -1 -27z m1175 -17 c2 -19 0
-18 -12 4 -18 32 -19 44 -2 29 7 -7 14 -22 14 -33z m-3277 9 c8 -9 8 -15 2
-15 -6 0 -13 6 -16 13 -4 6 -4 2 -2 -10 2 -13 1 -25 -3 -27 -4 -3 -8 9 -9 25
-3 32 9 37 28 14z m2074 -35 c-5 -5 -9 4 -10 23 -1 30 -1 30 9 9 6 -14 7 -26
1 -32z m-1744 20 c0 -5 -2 -10 -4 -10 -3 0 -8 5 -11 10 -3 6 -1 10 4 10 6 0
11 -4 11 -10z m1817 -12 c-3 -8 -6 -5 -6 6 -1 11 2 17 5 13 3 -3 4 -12 1 -19z
m111 -1 c7 -8 6 -19 -3 -37 -8 -14 -14 -21 -15 -17 0 5 5 17 10 27 6 12 7 21
1 25 -18 10 -31 -30 -21 -64 6 -21 5 -33 -3 -37 -7 -4 -9 -4 -5 0 3 4 2 21 -2
37 -6 19 -5 39 2 55 13 27 21 30 36 11z m-868 -32 c0 -5 -5 -3 -10 5 -5 8 -10
20 -10 25 0 6 5 3 10 -5 5 -8 10 -19 10 -25z m800 15 c-6 -11 -13 -20 -16 -20
-2 0 0 9 6 20 6 11 13 20 16 20 2 0 0 -9 -6 -20z m1310 10 c0 -5 -2 -10 -4
-10 -3 0 -8 5 -11 10 -3 6 -1 10 4 10 6 0 11 -4 11 -10z m-3153 -6 c-3 -3 -12
-4 -19 -1 -8 3 -5 6 6 6 11 1 17 -2 13 -5z m1087 -10 c3 -8 2 -12 -4 -9 -6 3
-10 10 -10 16 0 14 7 11 14 -7z m1841 6 c-3 -5 -12 -10 -18 -10 -7 0 -6 4 3
10 19 12 23 12 15 0z m196 -14 c11 6 11 -4 -1 -31 -7 -16 -9 -17 -9 -3 -1 9
-3 22 -4 30 -2 7 -2 10 0 5 3 -4 9 -5 14 -1z m-1420 -23 c-12 -20 -14 -14 -5
12 4 9 9 14 11 11 3 -2 0 -13 -6 -23z m-30 -6 c-10 -9 -11 -8 -5 6 3 10 9 15
12 12 3 -3 0 -11 -7 -18z m171 -9 c-7 -7 -12 -8 -12 -2 0 14 12 26 19 19 2 -3
-1 -11 -7 -17z m-323 -24 c-14 -18 -24 -11 -15 11 3 9 11 13 16 10 8 -5 7 -11
-1 -21z m1544 9 c-7 -3 -13 -12 -13 -21 0 -14 -2 -15 -9 -3 -7 10 -4 19 7 27
9 7 19 10 22 7 3 -3 -1 -8 -7 -10z m-1962 -34 c-5 -13 -10 -19 -10 -12 -1 15
10 45 15 40 3 -2 0 -15 -5 -28z m2019 13 c0 -4 -5 -13 -12 -20 -7 -7 -8 -12
-3 -12 4 0 0 -9 -10 -20 -10 -11 -22 -17 -26 -14 -13 8 -11 -10 3 -24 9 -9 9
-12 -1 -12 -8 0 -10 -7 -6 -21 5 -16 4 -19 -6 -14 -9 6 -10 3 -5 -11 5 -14 4
-16 -4 -8 -8 8 -8 19 0 39 7 20 8 31 0 39 -7 7 -10 6 -10 -4 -1 -11 -4 -10
-11 3 -6 10 -8 21 -5 24 3 4 6 1 6 -6 0 -9 5 -9 20 -1 11 6 20 8 20 5 0 -3 6
0 14 7 8 7 12 16 10 20 -2 4 0 9 6 13 6 4 8 11 5 16 -4 5 -1 9 4 9 6 0 11 -4
11 -8z m-1590 -26 c-5 -13 -6 -26 -3 -29 2 -3 1 -13 -5 -22 -16 -29 -22 7 -6
43 15 37 28 44 14 8z m-410 -4 c0 -5 -7 -17 -15 -28 -14 -18 -14 -17 -4 9 12
27 19 34 19 19z m432 -21 c2 -17 1 -28 -3 -25 -4 2 -9 1 -12 -3 -2 -5 -2 -2 0
5 1 8 3 22 3 33 0 29 7 23 12 -10z m79 6 c-10 -9 -11 -8 -5 6 3 10 9 15 12 12
3 -3 0 -11 -7 -18z m1191 -9 c-8 -8 -9 -4 -5 13 4 13 8 18 11 10 2 -7 -1 -18
-6 -23z m-1176 -24 c-4 -9 -9 -15 -11 -12 -3 3 -3 13 1 22 4 9 9 15 11 12 3
-3 3 -13 -1 -22z m-490 -22 c1 -20 0 -28 -3 -17 -3 11 -9 25 -14 32 -7 7 -5
13 3 16 7 3 13 6 13 6 0 1 1 -16 1 -37z m671 13 c-15 -16 -19 -13 -11 9 3 9
10 13 15 10 5 -3 3 -11 -4 -19z m994 -14 c-17 -21 -27 -42 -23 -46 4 -5 1 -5
-5 -1 -10 5 -7 15 10 39 20 29 37 46 45 47 2 0 -10 -17 -27 -39z m-1681 -15
c0 -6 -7 -3 -14 6 -7 10 -17 14 -21 10 -5 -4 -5 -1 -1 6 6 10 11 10 22 1 8 -6
14 -17 14 -23z m448 3 c-3 -8 -7 -3 -11 10 -4 17 -3 21 5 13 5 -5 8 -16 6 -23z
m192 11 c0 -5 -2 -10 -4 -10 -3 0 -8 5 -11 10 -3 6 -1 10 4 10 6 0 11 -4 11
-10z m-136 -12 c-3 -5 -9 -6 -14 -3 -5 3 -13 -3 -19 -12 -11 -20 -14 -13 -5
10 3 9 14 15 24 14 10 -1 16 -5 14 -9z m179 -13 c-3 -9 -8 -14 -10 -11 -3 3
-2 9 2 15 9 16 15 13 8 -4z m1227 -61 c0 -4 -3 -4 -7 -1 -3 4 -12 2 -19 -4 -9
-8 -12 -6 -9 8 2 10 4 22 4 26 1 10 31 -18 31 -29z m-270 -6 c0 -19 -2 -20
-10 -8 -13 19 -13 30 0 30 6 0 10 -10 10 -22z m217 -15 c-3 -10 -5 -4 -5 12 0
17 2 24 5 18 2 -7 2 -21 0 -30z m-40 -15 c-3 -7 -5 -2 -5 12 0 14 2 19 5 13 2
-7 2 -19 0 -25z m20 10 c-3 -8 -6 -5 -6 6 -1 11 2 17 5 13 3 -3 4 -12 1 -19z
m-208 -35 c1 -7 -3 -13 -9 -13 -5 0 -6 7 -3 17 4 10 2 14 -4 10 -7 -5 -9 1 -5
15 5 21 6 21 13 2 4 -10 8 -25 8 -31z m-1523 7 c0 -12 -4 -16 -9 -11 -5 5 -6
14 -3 20 10 15 12 14 12 -9z m1541 -2 c-3 -8 -6 -5 -6 6 -1 11 2 17 5 13 3 -3
4 -12 1 -19z m-1593 -4 c3 -8 2 -12 -4 -9 -6 3 -10 10 -10 16 0 14 7 11 14 -7z
m1813 -8 c-6 -8 -15 -12 -19 -9 -4 2 -2 10 5 17 6 8 15 12 19 9 4 -2 2 -10 -5
-17z m-39 -16 c-2 -19 3 -34 12 -40 8 -5 12 -11 9 -14 -3 -3 -16 6 -30 21 -13
14 -18 23 -11 19 8 -5 12 1 12 18 0 14 3 26 6 26 3 0 4 -14 2 -30z m-151 -17
c-3 -10 -5 -4 -5 12 0 17 2 24 5 18 2 -7 2 -21 0 -30z m-1574 4 c3 -8 -1 -14
-8 -14 -7 0 -11 6 -8 14 3 7 6 13 8 13 2 0 5 -6 8 -13z m1554 -9 c-3 -8 -6 -5
-6 6 -1 11 2 17 5 13 3 -3 4 -12 1 -19z m-1094 -18 c4 0 5 6 1 13 -5 8 -2 8 9
-2 9 -7 17 -19 16 -25 0 -6 -3 -6 -6 2 -3 9 -11 6 -26 -10 -16 -19 -19 -20
-13 -4 3 10 1 26 -6 35 -10 13 -10 14 2 4 8 -7 18 -13 23 -13z m-475 -26 c-4
-3 -12 5 -18 18 -12 22 -12 22 6 6 10 -10 15 -20 12 -24z m19 4 c-3 -8 -6 -5
-6 6 -1 11 2 17 5 13 3 -3 4 -12 1 -19z m1466 -40 c-9 -10 -19 -15 -22 -12 -3
4 0 9 7 11 6 3 12 14 12 26 0 18 2 19 10 7 6 -10 4 -20 -7 -32z m-1439 -4 c3
-8 2 -12 -4 -9 -6 3 -10 10 -10 16 0 14 7 11 14 -7z m1626 12 c0 -2 -7 -7 -16
-10 -8 -3 -12 -2 -9 4 6 10 25 14 25 6z m-1200 -56 c-11 -22 -16 -40 -11 -40
5 0 14 14 21 30 7 17 15 29 17 26 6 -6 -26 -66 -36 -66 -22 0 -16 39 12 78 19
24 17 11 -3 -28z m1236 26 c8 -8 11 -17 6 -20 -4 -2 -13 4 -20 15 -14 22 -7
25 14 5z m-1676 -18 c0 -6 -6 -5 -15 2 -8 7 -15 14 -15 16 0 2 7 1 15 -2 8 -4
15 -11 15 -16z m1428 -3 c-3 -3 -9 2 -12 12 -6 14 -5 15 5 6 7 -7 10 -15 7
-18z m210 -6 c-3 -8 -7 -3 -11 10 -4 17 -3 21 5 13 5 -5 8 -16 6 -23z m-171
-1 c-3 -8 -6 -5 -6 6 -1 11 2 17 5 13 3 -3 4 -12 1 -19z m-1452 -18 c3 -5 1
-10 -4 -10 -6 0 -11 5 -11 10 0 6 2 10 4 10 3 0 8 -4 11 -10z m462 -12 c-3 -8
-6 -5 -6 6 -1 11 2 17 5 13 3 -3 4 -12 1 -19z m938 -9 c11 -16 1 -19 -13 -3
-7 8 -8 14 -3 14 5 0 13 -5 16 -11z m255 -12 c0 -7 -4 -6 -10 3 -9 13 -14 7
-11 -12 2 -15 -17 -8 -23 8 -3 8 -2 12 3 9 5 -3 12 -1 16 5 8 13 25 3 25 -13z
m-1190 -17 c0 -5 7 -7 16 -3 14 5 13 3 -2 -15 -19 -23 -30 -29 -19 -12 4 6 1
17 -5 25 -9 11 -9 15 -1 15 6 0 11 -4 11 -10z m921 -13 c-6 -8 -7 -18 -3 -22
4 -5 1 -5 -6 -1 -10 6 -10 11 -1 22 6 8 14 14 16 14 3 0 0 -6 -6 -13z m-1301
-44 c0 -3 -7 0 -15 7 -8 7 -15 9 -15 4 0 -5 -5 -1 -11 9 -6 9 -15 14 -21 11
-7 -4 -8 -2 -4 5 5 8 16 5 37 -9 16 -12 29 -24 29 -27z m416 22 c-1 -8 -5 -17
-8 -21 -5 -4 -4 16 1 34 3 9 9 -1 7 -13z m1125 -12 c-12 -20 -14 -14 -5 12 4
9 9 14 11 11 3 -2 0 -13 -6 -23z m-1541 -34 c0 8 2 12 5 9 3 -3 2 -13 -1 -22
-5 -14 -9 -15 -15 -4 -5 7 -9 18 -9 23 0 6 5 3 10 -5 8 -12 10 -12 10 -1z
m1266 -18 c-1 -24 -4 -27 -15 -18 -11 10 -12 6 -7 -19 4 -17 4 -44 0 -58 l-6
-27 -13 23 c-9 18 -9 26 0 38 7 8 10 20 8 27 -3 9 24 60 33 63 1 0 1 -13 0
-29z m-856 9 c0 -5 -4 -10 -10 -10 -5 0 -10 5 -10 10 0 6 5 10 10 10 6 0 10
-4 10 -10z m-426 -40 c-6 -5 -24 21 -24 34 0 6 6 1 14 -10 8 -10 12 -21 10
-24z m1529 12 c-5 -11 -7 -11 -15 0 -7 9 -8 6 -5 -10 7 -28 -1 -54 -14 -46 -5
3 -9 10 -9 15 0 6 5 7 10 4 6 -3 10 -2 10 4 0 5 -5 13 -10 16 -8 5 -8 11 -1
19 15 17 40 16 34 -2z m-1108 -12 c3 -6 -1 -7 -9 -4 -18 7 -21 14 -7 14 6 0
13 -4 16 -10z m53 -15 c-3 -3 -9 2 -12 12 -6 14 -5 15 5 6 7 -7 10 -15 7 -18z
m-1635 -2 c-29 -2 -78 -2 -110 0 -32 2 -8 3 52 3 61 0 87 -1 58 -3z m130 0
c-7 -2 -19 -2 -25 0 -7 3 -2 5 12 5 14 0 19 -2 13 -5z m55 -18 c-3 -3 -9 2
-12 12 -6 14 -5 15 5 6 7 -7 10 -15 7 -18z m-371 9 c-3 -3 -12 -4 -19 -1 -8 3
-5 6 6 6 11 1 17 -2 13 -5z m323 -8 c0 -2 -9 -6 -20 -9 -11 -3 -18 -1 -14 4 5
9 34 13 34 5z m-368 -24 c3 -11 0 -19 -7 -19 -7 0 -10 8 -7 19 2 10 6 18 7 18
1 0 5 -8 7 -18z m432 -18 c3 -8 2 -12 -4 -9 -6 3 -10 10 -10 16 0 14 7 11 14
-7z m-57 -16 c-3 -8 -6 -5 -6 6 -1 11 2 17 5 13 3 -3 4 -12 1 -19z m2483 18
c0 -2 -8 -10 -17 -17 -16 -13 -17 -12 -4 4 13 16 21 21 21 13z m-2850 -26 c0
-5 -2 -10 -4 -10 -3 0 -8 5 -11 10 -3 6 -1 10 4 10 6 0 11 -4 11 -10z m2855
-10 c3 -5 -1 -10 -10 -10 -9 0 -13 5 -10 10 3 6 8 10 10 10 2 0 7 -4 10 -10z
m-2417 -8 c10 8 13 9 9 1 -4 -6 -3 -15 3 -18 6 -4 8 -16 4 -27 -4 -13 -2 -18
4 -14 6 3 13 2 16 -3 3 -5 0 -11 -8 -14 -16 -7 -28 16 -20 38 4 10 0 13 -13
11 -14 -3 -19 2 -20 17 0 12 1 16 4 9 4 -10 8 -10 21 0z m869 -14 c-3 -8 -6
-5 -6 6 -1 11 2 17 5 13 3 -3 4 -12 1 -19z m-1293 -18 c-6 -6 -10 -3 -10 10 0
13 4 16 10 10 7 -7 7 -13 0 -20z m2579 11 c3 -14 0 -17 -14 -14 -14 4 -15 8
-6 19 15 17 14 17 20 -5z m-723 -26 c0 -5 -5 -3 -10 5 -5 8 -10 20 -10 25 0 6
5 3 10 -5 5 -8 10 -19 10 -25z m-588 -11 c-8 -15 -9 -15 -15 0 -4 10 -3 15 3
11 6 -3 10 2 11 12 0 10 3 13 5 6 3 -7 1 -20 -4 -29z m-1239 6 c-3 -12 -8 -19
-11 -16 -5 6 5 36 12 36 2 0 2 -9 -1 -20z m1287 16 c0 -3 -4 -8 -10 -11 -5 -3
-10 -1 -10 4 0 6 5 11 10 11 6 0 10 -2 10 -4z m1448 -41 c-1 -20 4 -41 10 -47
7 -7 12 -17 12 -22 0 -6 -5 -3 -11 7 -6 9 -13 15 -17 13 -4 -2 -7 8 -6 22 1
15 3 35 3 45 1 9 3 17 6 17 2 0 4 -16 3 -35z m54 13 c-7 -7 -12 -8 -12 -2 0
14 12 26 19 19 2 -3 -1 -11 -7 -17z m-932 -40 c0 -16 -4 -28 -8 -28 -4 0 -8
18 -8 40 0 25 3 36 8 28 4 -7 8 -25 8 -40z m26 4 c0 -15 4 -36 8 -47 l8 -20
-13 20 c-13 19 -21 91 -10 79 3 -3 6 -18 7 -32z m646 26 c-7 -7 -8 -17 -2 -28
6 -11 5 -23 -4 -35 -12 -16 -13 -14 -11 17 2 36 11 58 23 58 3 0 1 -5 -6 -12z
m-2132 -13 c7 -9 8 -15 2 -15 -5 0 -12 7 -16 15 -3 8 -4 15 -2 15 2 0 9 -7 16
-15z m857 -7 c-3 -8 -6 -5 -6 6 -1 11 2 17 5 13 3 -3 4 -12 1 -19z m-23 4 c3
-5 -1 -9 -9 -9 -8 0 -12 4 -9 9 3 4 7 8 9 8 2 0 6 -4 9 -8z m-1192 -57 c-2
-14 2 -33 9 -43 7 -9 2 -7 -10 5 -17 15 -22 26 -16 40 5 10 7 22 6 26 -1 5 3
6 7 3 5 -3 7 -17 4 -31z m1338 20 c-7 -9 -10 -19 -6 -22 4 -4 12 -1 17 7 9 13
10 13 6 0 -3 -13 -47 -25 -47 -13 0 10 26 43 34 43 4 0 3 -7 -4 -15z m70 -1
c0 -8 -19 -13 -24 -6 -3 5 1 9 9 9 8 0 15 -2 15 -3z m-1023 -36 c-3 -8 -6 -5
-6 6 -1 11 2 17 5 13 3 -3 4 -12 1 -19z m1050 -3 c6 -15 7 -27 2 -31 -5 -3 -8
-2 -7 3 1 4 -3 18 -10 31 -7 12 -9 22 -5 22 4 0 13 -11 20 -25z m1232 11 c9
-11 9 -16 -1 -22 -7 -4 -10 -4 -6 1 4 4 3 14 -3 22 -6 7 -9 13 -6 13 2 0 10
-6 16 -14z m33 -31 c-2 -14 -8 -28 -13 -30 -8 -6 -4 34 6 43 2 3 -1 12 -8 21
-10 14 -10 14 4 3 10 -7 14 -21 11 -37z m-2622 11 c0 -2 -8 -10 -17 -17 -16
-13 -17 -12 -4 4 13 16 21 21 21 13z m1804 -30 c-2 -11 -9 -24 -15 -30 -9 -8
-9 -6 -1 9 8 14 7 22 -5 30 -12 9 -11 11 5 11 15 0 19 -6 16 -20z m553 -8 c-3
-8 -6 -5 -6 6 -1 11 2 17 5 13 3 -3 4 -12 1 -19z m-1309 -19 c-3 -8 -7 -3 -11
10 -4 17 -3 21 5 13 5 -5 8 -16 6 -23z m363 8 c-10 -9 -11 -8 -5 6 3 10 9 15
12 12 3 -3 0 -11 -7 -18z m-1047 -3 c3 -8 2 -12 -4 -9 -6 3 -10 10 -10 16 0
14 7 11 14 -7z m1976 -30 c0 -14 -4 -23 -9 -20 -5 4 -11 0 -14 -6 -2 -7 -4 -1
-3 14 0 14 5 24 10 20 5 -3 6 2 3 12 -4 10 -3 15 3 11 6 -3 10 -17 10 -31z
m260 16 c0 -5 -2 -10 -4 -10 -3 0 -8 5 -11 10 -3 6 -1 10 4 10 6 0 11 -4 11
-10z m-1410 -10 c0 -5 -4 -10 -10 -10 -5 0 -10 5 -10 10 0 6 5 10 10 10 6 0
10 -4 10 -10z m46 -2 c5 -7 3 -8 -6 -3 -10 6 -12 4 -6 -11 5 -14 4 -16 -5 -7
-6 6 -8 16 -5 22 9 14 13 14 22 -1z m1121 -10 c-3 -8 -6 -5 -6 6 -1 11 2 17 5
13 3 -3 4 -12 1 -19z m200 -25 c-3 -10 -5 -2 -5 17 0 19 2 27 5 18 2 -10 2
-26 0 -35z m-2167 16 c0 -6 -4 -7 -10 -4 -5 3 -10 11 -10 16 0 6 5 7 10 4 6
-3 10 -11 10 -16z m628 -14 c-3 -3 -9 2 -12 12 -6 14 -5 15 5 6 7 -7 10 -15 7
-18z m792 21 c0 -2 -8 -10 -17 -17 -16 -13 -17 -12 -4 4 13 16 21 21 21 13z
m773 -21 c-3 -9 -8 -14 -10 -11 -3 3 -2 9 2 15 9 16 15 13 8 -4z m-2622 -18
c-10 -9 -11 -8 -5 6 3 10 9 15 12 12 3 -3 0 -11 -7 -18z m417 5 c2 -7 8 -10
13 -6 5 3 9 1 9 -5 0 -20 -19 -20 -25 0 -5 15 -10 18 -15 9 -5 -9 -9 -8 -13 3
-4 10 0 14 11 13 9 -2 18 -8 20 -14z m620 -7 c-3 -3 -9 2 -12 12 -6 14 -5 15
5 6 7 -7 10 -15 7 -18z m192 4 c0 -14 -17 -10 -23 5 -4 10 -1 13 9 9 7 -3 14
-9 14 -14z m673 1 c3 -11 1 -18 -4 -14 -5 3 -9 12 -9 20 0 20 7 17 13 -6z
m679 -5 c8 -13 7 -16 -1 -11 -11 7 -12 6 -16 -32 -1 -13 -7 -28 -12 -33 -7 -7
-9 0 -7 22 2 18 6 34 9 37 2 3 0 13 -5 22 -13 25 18 20 32 -5z m-2542 -4 c0
-4 -6 -8 -14 -8 -8 0 -12 6 -9 14 5 13 23 9 23 -6z m2327 -13 c-3 -8 -6 -5 -6
6 -1 11 2 17 5 13 3 -3 4 -12 1 -19z m43 12 c0 -5 -2 -10 -4 -10 -3 0 -8 5
-11 10 -3 6 -1 10 4 10 6 0 11 -4 11 -10z m-1997 -23 c3 -8 -1 -14 -8 -14 -7
0 -11 6 -8 14 3 7 6 13 8 13 2 0 5 -6 8 -13z m621 -17 c-6 -6 -10 -3 -10 10 0
13 4 16 10 10 7 -7 7 -13 0 -20z m-988 -7 c-10 -10 -19 5 -10 18 6 11 8 11 12
0 2 -7 1 -15 -2 -18z m418 11 c3 -8 2 -12 -4 -9 -6 3 -10 10 -10 16 0 14 7 11
14 -7z m1384 -9 c-3 -3 -9 2 -12 12 -6 14 -5 15 5 6 7 -7 10 -15 7 -18z m66 9
c3 -8 2 -12 -4 -9 -6 3 -10 10 -10 16 0 14 7 11 14 -7z m-727 -26 c4 -28 -6
-18 -12 12 -2 12 -1 20 2 16 4 -4 8 -16 10 -28z m283 -3 c14 -19 14 -19 -2 -6
-10 7 -18 18 -18 24 0 6 1 8 3 6 1 -2 9 -13 17 -24z m32 -32 c2 -23 0 -39 -5
-34 -4 4 -9 27 -10 49 -3 54 10 40 15 -15z m-1443 5 c0 -27 -2 -29 -8 -13 -5
11 -6 26 -4 33 8 21 13 13 12 -20z m431 28 c0 -2 -7 -7 -16 -10 -8 -3 -12 -2
-9 4 6 10 25 14 25 6z m1867 -18 c-3 -8 -6 -5 -6 6 -1 11 2 17 5 13 3 -3 4
-12 1 -19z m-1369 -13 c-3 -3 -9 2 -12 12 -6 14 -5 15 5 6 7 -7 10 -15 7 -18z
m-515 -16 c-8 -8 -13 -7 -18 2 -5 8 -4 10 3 5 7 -4 12 -2 12 5 0 7 3 9 7 6 4
-4 2 -12 -4 -18z m2071 12 c3 -4 -4 -17 -16 -27 -12 -11 -19 -14 -16 -9 3 6 8
18 11 28 7 19 13 21 21 8z m-2472 -43 c-6 -6 -12 -6 -17 3 -5 8 -4 10 3 5 7
-4 12 0 13 11 0 12 2 13 6 5 3 -8 1 -18 -5 -24z m903 22 c-3 -5 -12 -10 -18
-10 -7 0 -6 4 3 10 19 12 23 12 15 0z m957 -37 c-2 -24 -10 -44 -19 -47 -7 -3
-11 -1 -8 4 3 5 1 19 -5 30 -12 23 4 55 21 44 5 -3 9 0 9 7 0 7 2 10 3 8 2 -2
2 -23 -1 -46z m415 25 c-3 -8 -6 -5 -6 6 -1 11 2 17 5 13 3 -3 4 -12 1 -19z
m-1347 2 c0 -5 -5 -10 -11 -10 -5 0 -7 5 -4 10 3 6 8 10 11 10 2 0 4 -4 4 -10z
m-518 -22 c-6 -6 -15 -8 -19 -4 -4 4 -1 11 7 16 19 12 27 3 12 -12z m677 0
c14 -23 14 -23 -7 -4 -21 18 -21 18 -17 -21 4 -51 -6 -69 -24 -40 -13 20 -13
21 2 9 14 -12 15 -9 12 25 -4 58 10 70 34 31z m804 -1 c3 -8 -1 -14 -9 -14 -8
0 -14 6 -14 14 0 7 4 13 9 13 5 0 11 -6 14 -13z m321 -29 c-11 -20 -19 -28
-22 -19 -2 7 0 16 5 20 5 3 13 15 16 25 4 10 10 16 13 13 3 -3 -2 -20 -12 -39z
m-2213 -1 c-10 -9 -11 -8 -5 6 3 10 9 15 12 12 3 -3 0 -11 -7 -18z m1466 1
c-3 -8 -6 -5 -6 6 -1 11 2 17 5 13 3 -3 4 -12 1 -19z m-1003 -4 c3 -8 2 -12
-4 -9 -6 3 -10 10 -10 16 0 14 7 11 14 -7z m413 -4 c-3 -10 0 -21 6 -23 8 -2
5 -13 -7 -31 -13 -20 -21 -25 -29 -17 -7 7 -7 15 2 25 7 9 10 25 6 38 -5 18
-4 20 4 8 9 -13 11 -13 11 3 0 9 3 17 6 17 4 0 4 -9 1 -20z m1373 10 c0 -5 -5
-10 -11 -10 -5 0 -7 5 -4 10 3 6 8 10 11 10 2 0 4 -4 4 -10z m165 0 c3 -5 1
-10 -4 -10 -6 0 -11 5 -11 10 0 6 2 10 4 10 3 0 8 -4 11 -10z m-525 -9 c0 -6
-4 -13 -10 -16 -5 -3 -10 1 -10 9 0 9 5 16 10 16 6 0 10 -4 10 -9z m17 -13
c-3 -8 -6 -5 -6 6 -1 11 2 17 5 13 3 -3 4 -12 1 -19z m-1859 -28 c-7 -11 -14
-17 -17 -15 -2 3 1 11 7 18 7 8 8 18 4 22 -4 5 -1 5 5 1 10 -5 10 -11 1 -26z
m1449 24 c-3 -3 -12 -4 -19 -1 -8 3 -5 6 6 6 11 1 17 -2 13 -5z m930 -16 c-3
-8 -6 -5 -6 6 -1 11 2 17 5 13 3 -3 4 -12 1 -19z m-1977 -51 c0 -5 -4 -6 -9
-2 -5 3 -13 0 -17 -6 -8 -13 -34 15 -34 35 0 6 4 5 9 -3 7 -11 10 -8 16 9 l7
23 14 -24 c7 -13 13 -28 14 -32z m1484 37 c3 -8 2 -12 -4 -9 -6 3 -10 10 -10
16 0 14 7 11 14 -7z m-1844 -30 c0 -3 -7 -1 -15 6 -8 7 -15 17 -15 22 0 5 7 3
15 -6 8 -8 15 -18 15 -22z m1395 27 c3 -5 2 -12 -3 -15 -5 -3 -9 1 -9 9 0 17
3 19 12 6z m-1002 -39 c8 -11 12 -11 18 0 5 7 9 8 9 2 0 -14 -27 -50 -33 -44
-2 3 -7 23 -10 45 -4 22 -4 33 0 25 3 -8 10 -21 16 -28z m1032 29 c3 -5 1 -12
-5 -16 -5 -3 -10 1 -10 9 0 18 6 21 15 7z m673 -27 c-4 -3 -12 5 -18 18 -12
22 -12 22 6 6 10 -10 15 -20 12 -24z m-1161 4 c-3 -8 -6 -5 -6 6 -1 11 2 17 5
13 3 -3 4 -12 1 -19z m884 -1 c-10 -9 -11 -8 -5 6 3 10 9 15 12 12 3 -3 0 -11
-7 -18z m-1850 -4 c13 -16 12 -17 -3 -4 -10 7 -18 15 -18 17 0 8 8 3 21 -13z
m1442 -44 c-5 -5 -9 3 -11 19 -1 24 0 25 9 9 7 -11 7 -23 2 -28z m450 27 c4
-10 1 -13 -8 -9 -8 3 -12 9 -9 14 7 12 11 11 17 -5z m-951 -41 c9 -20 9 -20
-6 -1 -9 11 -16 27 -15 35 0 14 1 14 6 1 3 -8 10 -24 15 -35z m21 20 c-3 -9
-8 -14 -10 -11 -3 3 -2 9 2 15 9 16 15 13 8 -4z m-183 -34 c3 -2 -6 0 -19 4
-19 6 -23 4 -18 -7 3 -8 0 -15 -7 -15 -6 0 -12 8 -12 18 0 10 5 15 10 12 5 -4
6 1 2 12 -7 18 -6 18 16 0 13 -11 25 -22 28 -24z m709 -11 c0 -10 -3 -8 -9 5
-12 27 -12 43 0 25 5 -8 9 -22 9 -30z m411 5 c0 -5 -5 -3 -10 5 -5 8 -10 20
-10 25 0 6 5 3 10 -5 5 -8 10 -19 10 -25z m-1843 3 c-3 -8 -6 -5 -6 6 -1 11 2
17 5 13 3 -3 4 -12 1 -19z m1810 0 c-3 -8 -6 -5 -6 6 -1 11 2 17 5 13 3 -3 4
-12 1 -19z m444 -7 c-23 -32 -27 -51 -10 -51 5 0 7 -5 3 -11 -11 -18 -26 18
-18 43 7 25 25 47 37 48 5 0 -1 -13 -12 -29z m-1384 -13 c-3 -8 -6 -5 -6 6 -1
11 2 17 5 13 3 -3 4 -12 1 -19z m538 12 c3 -5 1 -10 -4 -10 -6 0 -11 5 -11 10
0 6 2 10 4 10 3 0 8 -4 11 -10z m-1034 -33 c-8 -8 -11 -7 -11 4 0 20 13 34 18
19 3 -7 -1 -17 -7 -23z m41 6 c-5 -26 -15 -23 -17 6 -1 10 4 18 10 18 7 0 10
-10 7 -24z m-397 -12 c-6 -5 -25 10 -25 20 0 5 6 4 14 -3 8 -7 12 -15 11 -17z
m1999 13 c3 -8 2 -12 -4 -9 -6 3 -10 10 -10 16 0 14 7 11 14 -7z m-1377 -18
c-3 -7 0 -20 6 -27 10 -11 9 -11 -5 0 -15 11 -15 41 -1 41 3 0 3 -6 0 -14z
m165 5 c8 11 9 11 6 1 -2 -8 -7 -13 -12 -12 -5 1 -13 -4 -17 -12 -7 -10 -9
-10 -9 2 0 13 -1 13 -11 0 -9 -13 -10 -13 -6 0 2 8 10 14 16 13 6 -2 11 3 12
10 0 8 2 8 6 -2 5 -11 7 -11 15 0z m1048 -11 c0 -11 3 -19 8 -17 12 3 62 -39
62 -53 0 -7 -10 -1 -21 14 -12 15 -27 25 -34 22 -8 -3 -18 7 -24 25 -6 18 -6
29 0 29 5 0 9 -9 9 -20z m-990 -1 c0 -5 -5 -7 -12 -3 -7 5 -9 2 -5 -9 4 -11 2
-14 -9 -10 -11 4 -12 9 -3 19 14 17 29 18 29 3z m-475 -9 c3 -5 1 -10 -4 -10
-6 0 -11 5 -11 10 0 6 2 10 4 10 3 0 8 -4 11 -10z m1058 -10 c3 -11 1 -18 -4
-14 -5 3 -9 12 -9 20 0 20 7 17 13 -6z m597 16 c0 -3 -4 -8 -10 -11 -5 -3 -10
-1 -10 4 0 6 5 11 10 11 6 0 10 -2 10 -4z m-2049 -29 c-10 -9 -11 -8 -5 6 3
10 9 15 12 12 3 -3 0 -11 -7 -18z m26 1 c-3 -8 -6 -5 -6 6 -1 11 2 17 5 13 3
-3 4 -12 1 -19z m1937 -13 c-4 -8 -11 -15 -16 -15 -6 0 -5 6 2 15 7 8 14 15
16 15 2 0 1 -7 -2 -15z m-1520 -11 c3 -8 2 -12 -4 -9 -6 3 -10 10 -10 16 0 14
7 11 14 -7z m386 -27 c0 -4 -6 -2 -14 5 -8 7 -12 17 -9 22 5 8 23 -12 23 -27z
m-773 -19 c-3 -7 -5 -2 -5 12 0 14 2 19 5 13 2 -7 2 -19 0 -25z m1900 10 c-3
-8 -6 -5 -6 6 -1 11 2 17 5 13 3 -3 4 -12 1 -19z m-1151 -12 c-1 -18 -4 -22
-13 -14 -10 8 -10 13 0 23 7 8 13 14 13 15 1 0 1 -11 0 -24z m1397 4 c-3 -11
-10 -23 -16 -27 -5 -3 -8 -2 -5 3 3 5 8 17 11 27 9 24 16 22 10 -3z m-1588
-19 c-6 -5 -25 10 -25 20 0 5 6 4 14 -3 8 -7 12 -15 11 -17z m1290 10 c-3 -6
-11 -11 -16 -11 -5 0 -4 6 3 14 14 16 24 13 13 -3z m-1855 -36 c0 -5 -5 -3
-10 5 -5 8 -10 20 -10 25 0 6 5 3 10 -5 5 -8 10 -19 10 -25z m396 26 c-3 -5 1
-14 9 -21 8 -7 15 -20 15 -29 0 -10 -7 -6 -19 13 -18 26 -19 46 -5 46 3 0 3
-4 0 -9z m34 -1 c0 -5 -5 -10 -11 -10 -5 0 -7 5 -4 10 3 6 8 10 11 10 2 0 4
-4 4 -10z m997 -22 c-3 -7 -5 -2 -5 12 0 14 2 19 5 13 2 -7 2 -19 0 -25z
m-982 -18 c3 -5 1 -10 -4 -10 -6 0 -11 5 -11 10 0 6 2 10 4 10 3 0 8 -4 11
-10z m258 -29 c9 -18 11 -34 6 -42 -7 -11 -9 -10 -9 4 0 9 -9 26 -20 37 -12
12 -18 25 -15 31 9 13 21 3 38 -30z m-218 19 c3 -5 1 -10 -4 -10 -6 0 -11 5
-11 10 0 6 2 10 4 10 3 0 8 -4 11 -10z m55 0 c0 -5 -2 -10 -4 -10 -3 0 -8 5
-11 10 -3 6 -1 10 4 10 6 0 11 -4 11 -10z m-489 -15 c8 5 11 5 7 0 -4 -4 -3
-16 3 -26 6 -13 6 -19 -1 -19 -5 0 -10 6 -10 14 0 8 -7 16 -15 20 -8 3 -15 11
-15 18 0 10 2 10 9 -1 5 -8 14 -10 22 -6z m340 -8 c-10 -9 -11 -8 -5 6 3 10 9
15 12 12 3 -3 0 -11 -7 -18z m268 -29 c6 10 10 10 21 -3 7 -8 10 -18 6 -22 -3
-3 -6 -1 -6 5 0 7 -5 12 -11 12 -6 0 -9 -7 -5 -15 3 -8 -1 -21 -9 -28 -10 -11
-11 -17 -2 -26 8 -8 8 -14 -2 -24 -11 -10 -12 -9 -6 1 4 8 -1 22 -12 34 -10
12 -13 18 -6 15 20 -12 24 11 8 45 -15 30 -15 31 0 13 12 -15 18 -17 24 -7z
m842 4 c-7 -14 -6 -25 5 -40 8 -12 11 -22 6 -22 -16 0 -31 45 -20 63 12 23 21
22 9 -1z m-1440 -47 c15 -17 16 -22 4 -39 -13 -17 -14 -17 -12 10 1 16 -3 28
-9 27 -6 -1 -11 3 -11 10 0 7 -4 21 -8 32 l-7 20 13 -20 c6 -11 20 -29 30 -40z
m2059 29 c0 -8 -4 -14 -8 -14 -4 0 -8 9 -8 19 0 11 4 17 8 15 4 -3 8 -12 8
-20z m-33 -10 c-3 -3 -12 -4 -19 -1 -8 3 -5 6 6 6 11 1 17 -2 13 -5z m-587
-64 c0 -8 -7 -2 -15 14 -19 36 -19 45 0 20 8 -10 14 -26 15 -34z m580 46 c0
-3 -4 -8 -10 -11 -5 -3 -10 -1 -10 4 0 6 5 11 10 11 6 0 10 -2 10 -4z m-1989
-53 c-8 -15 -10 -15 -11 -2 0 17 10 32 18 25 2 -3 -1 -13 -7 -23z m1984 3 c0
-15 -4 -21 -9 -16 -5 5 -6 16 -3 24 9 22 12 20 12 -8z m-48 -18 c-3 -7 -5 -2
-5 12 0 14 2 19 5 13 2 -7 2 -19 0 -25z m-30 0 c-3 -8 -6 -5 -6 6 -1 11 2 17
5 13 3 -3 4 -12 1 -19z m36 -39 c-4 -15 -8 -17 -14 -8 -6 11 4 28 18 29 0 0
-1 -9 -4 -21z m-493 -10 c0 -6 -4 -7 -10 -4 -5 3 -10 11 -10 16 0 6 5 7 10 4
6 -3 10 -11 10 -16z m-1396 -88 c-2 -2 -4 4 -4 15 0 15 -2 16 -9 5 -10 -15
-31 -7 -31 12 0 8 3 8 9 -1 7 -11 9 -11 14 2 4 9 1 16 -6 17 -9 0 -9 2 1 6 6
2 13 14 13 26 1 12 5 0 10 -28 4 -27 6 -51 3 -54z m490 84 c-4 -8 -8 -15 -10
-15 -2 0 -4 7 -4 15 0 8 4 15 10 15 5 0 7 -7 4 -15z m935 -17 c-9 -17 -9 -23
0 -26 9 -3 9 -7 0 -18 -9 -11 -9 -18 -1 -26 9 -9 12 -9 12 2 0 7 3 11 6 7 3
-3 -2 -16 -11 -29 -11 -14 -15 -16 -12 -6 4 10 2 20 -3 23 -9 6 -7 66 4 84 13
20 17 11 5 -11z m-1012 -20 c-3 -7 -5 -2 -5 12 0 14 2 19 5 13 2 -7 2 -19 0
-25z m1443 12 c0 -5 -2 -10 -4 -10 -3 0 -8 5 -11 10 -3 6 -1 10 4 10 6 0 11
-4 11 -10z m-1856 -78 c3 -5 -1 -9 -9 -9 -8 0 -12 4 -9 9 3 4 7 8 9 8 2 0 6
-4 9 -8z m429 -6 c4 -10 1 -13 -9 -9 -7 3 -14 0 -14 -6 0 -6 -5 -11 -12 -11
-6 0 -3 9 7 20 22 24 21 24 28 6z m1034 -63 c-3 -2 -8 5 -12 16 -3 12 -11 19
-16 16 -5 -3 -6 2 -2 11 5 14 8 12 20 -11 8 -15 12 -29 10 -32z m-1107 -7 c0
-5 7 -1 15 10 8 10 14 15 14 9 0 -5 -6 -19 -14 -29 -8 -11 -15 -27 -15 -37 0
-9 -6 -19 -13 -22 -7 -3 -13 3 -13 13 0 10 3 17 7 14 16 -9 18 30 3 59 -13 29
-13 30 1 13 8 -11 15 -24 15 -30z m-293 12 c-3 -8 -6 -5 -6 6 -1 11 2 17 5 13
3 -3 4 -12 1 -19z m1737 -34 c-3 -43 -2 -45 12 -28 14 18 14 18 4 -4 -9 -19
-14 -21 -26 -11 -10 8 -11 15 -3 25 7 9 7 19 0 33 -8 14 -8 21 2 24 6 3 12 6
13 6 0 1 -1 -20 -2 -45z m-1757 4 c-3 -8 -6 -5 -6 6 -1 11 2 17 5 13 3 -3 4
-12 1 -19z m1780 0 c-3 -8 -6 -5 -6 6 -1 11 2 17 5 13 3 -3 4 -12 1 -19z
m-321 -30 c4 -6 3 -8 -4 -4 -5 3 -13 0 -15 -6 -3 -8 -6 -6 -6 5 -1 19 14 23
25 5z m-1396 -47 c0 -6 -4 -11 -10 -11 -5 0 -10 4 -10 9 0 5 -3 18 -7 28 -6
17 -6 17 10 1 9 -9 17 -21 17 -27z m240 -8 c0 -9 -3 -13 -7 -10 -3 4 -13 1
-21 -6 -13 -11 -14 -9 -1 11 16 26 29 29 29 5z m-240 -24 c0 -14 -29 -4 -33
12 -4 15 -2 16 14 6 10 -6 19 -14 19 -18z m1401 -2 c-10 -9 -11 -8 -5 6 3 10
9 15 12 12 3 -3 0 -11 -7 -18z m34 -28 c0 -22 5 -43 10 -47 6 -4 11 -14 13
-22 2 -11 -1 -10 -12 3 -10 14 -15 15 -19 5 -6 -15 -6 46 -1 80 6 33 9 27 9
-19z m-1211 6 c-4 -8 -8 -15 -10 -15 -2 0 -4 7 -4 15 0 8 4 15 10 15 5 0 7 -7
4 -15z m1411 5 c3 -5 1 -10 -4 -10 -6 0 -11 5 -11 10 0 6 2 10 4 10 3 0 8 -4
11 -10z m28 -5 c-3 -9 -8 -14 -10 -11 -3 3 -2 9 2 15 9 16 15 13 8 -4z m-1656
-35 c-3 -14 0 -20 11 -20 8 0 13 -3 9 -6 -13 -14 -35 5 -30 25 3 12 8 21 10
21 3 0 3 -9 0 -20z m1633 4 c0 -3 -7 -12 -15 -20 -16 -17 -18 -14 -9 10 6 15
24 23 24 10z m-1450 -44 c-18 -12 -30 -13 -30 -2 0 4 10 9 22 9 18 2 20 0 8
-7z m1395 0 c3 -5 1 -10 -4 -10 -6 0 -11 5 -11 10 0 6 2 10 4 10 3 0 8 -4 11
-10z m5 -24 c0 -2 -7 -7 -16 -10 -8 -3 -12 -2 -9 4 6 10 25 14 25 6z"/>
<path d="M4046 3238 c3 -5 10 -6 15 -3 13 9 11 12 -6 12 -8 0 -12 -4 -9 -9z"/>
<path d="M2027 3133 c-10 -9 -9 -23 2 -23 5 0 11 7 15 15 5 15 -5 20 -17 8z"/>
<path d="M6104 3103 c3 -3 1 -15 -5 -27 -9 -20 -9 -20 4 -3 11 14 16 15 20 5
4 -10 6 -10 6 0 1 6 2 15 4 19 1 3 -6 7 -16 9 -11 1 -16 0 -13 -3z"/>
<path d="M5341 1744 c0 -11 3 -14 6 -6 3 7 2 16 -1 19 -3 4 -6 -2 -5 -13z"/>
<path d="M4735 1220 c-3 -5 -1 -18 4 -27 9 -15 10 -14 9 10 -3 30 -4 32 -13
17z"/>
<path d="M3316 1104 c-4 -9 -4 -19 -1 -22 2 -3 7 3 11 12 4 9 4 19 1 22 -2 3
-7 -3 -11 -12z"/>
</g>
</svg>
